<svg xmlns="http://www.w3.org/2000/svg" version="1.1" xmlns:xlink="http://www.w3.org/1999/xlink" viewBox="0 0 200 200"><rect width="200" height="200" fill="url('#gradient')"></rect><defs><linearGradient id="gradient" gradientTransform="rotate(52 0.5 0.5)"><stop offset="0%" stop-color="#000000"></stop><stop offset="100%" stop-color="#472660"></stop></linearGradient></defs><g><g fill="#ffffff" transform="matrix(2.046511627906977,0,0,2.046511627906977,43.36200943519903,110.38917131202166)" stroke="#ffffff" stroke-width="0.2"><path d="M12.71-7.60L12.71-1.76Q11.92-0.88 10.40-0.34Q8.88 0.20 7.06 0.20L7.06 0.20Q4.27 0.20 2.60-1.51Q0.93-3.22 0.81-6.27L0.81-6.27L0.80-7.50Q0.80-9.60 1.54-11.17Q2.29-12.73 3.67-13.58Q5.05-14.42 6.87-14.42L6.87-14.42Q9.52-14.42 10.99-13.21Q12.46-11.99 12.71-9.58L12.71-9.58L9.40-9.58Q9.23-10.77 8.64-11.28Q8.06-11.79 6.98-11.79L6.98-11.79Q5.69-11.79 4.99-10.69Q4.29-9.60 4.28-7.57L4.28-7.57L4.28-6.71Q4.28-4.58 5.00-3.51Q5.73-2.44 7.29-2.44L7.29-2.44Q8.63-2.44 9.29-3.04L9.29-3.04L9.29-5.24L6.90-5.24L6.90-7.60L12.71-7.60ZM23.80 0L20.51 0Q20.33-0.32 20.20-0.95L20.20-0.95Q19.29 0.20 17.66 0.20L17.66 0.20Q16.16 0.20 15.12-0.71Q14.07-1.61 14.07-2.98L14.07-2.98Q14.07-4.70 15.34-5.58Q16.61-6.46 19.03-6.46L19.03-6.46L20.05-6.46L20.05-7.01Q20.05-8.47 18.79-8.47L18.79-8.47Q17.62-8.47 17.62-7.31L17.62-7.31L14.33-7.31Q14.33-8.85 15.63-9.80Q16.93-10.76 18.96-10.76Q20.98-10.76 22.15-9.78Q23.32-8.79 23.35-7.07L23.35-7.07L23.35-2.39Q23.37-0.94 23.80-0.17L23.80-0.17L23.80 0ZM18.45-2.15L18.45-2.15Q19.06-2.15 19.47-2.41Q19.87-2.68 20.05-3.01L20.05-3.01L20.05-4.70L19.09-4.70Q17.37-4.70 17.37-3.15L17.37-3.15Q17.37-2.71 17.68-2.43Q17.98-2.15 18.45-2.15ZM27.58-10.57L29.25-4.61L31.01-10.57L34.53-10.57L30.22 1.77L30.04 2.22Q29.12 4.27 26.80 4.27L26.80 4.27Q26.15 4.27 25.44 4.07L25.44 4.07L25.44 1.72L25.87 1.72Q26.56 1.72 26.93 1.52Q27.29 1.32 27.47 0.80L27.47 0.80L27.73 0.10L24.06-10.57L27.58-10.57ZM44.48 0L41.19 0Q41.02-0.32 40.88-0.95L40.88-0.95Q39.97 0.20 38.34 0.20L38.34 0.20Q36.85 0.20 35.80-0.71Q34.76-1.61 34.76-2.98L34.76-2.98Q34.76-4.70 36.03-5.58Q37.29-6.46 39.72-6.46L39.72-6.46L40.73-6.46L40.73-7.01Q40.73-8.47 39.47-8.47L39.47-8.47Q38.30-8.47 38.30-7.31L38.30-7.31L35.01-7.31Q35.01-8.85 36.31-9.80Q37.62-10.76 39.64-10.76Q41.66-10.76 42.83-9.78Q44.00-8.79 44.03-7.07L44.03-7.07L44.03-2.39Q44.05-0.94 44.48-0.17L44.48-0.17L44.48 0ZM39.13-2.15L39.13-2.15Q39.75-2.15 40.15-2.41Q40.56-2.68 40.73-3.01L40.73-3.01L40.73-4.70L39.78-4.70Q38.06-4.70 38.06-3.15L38.06-3.15Q38.06-2.71 38.36-2.43Q38.66-2.15 39.13-2.15ZM54.44-8.79L49.74-2.54L54.55-2.54L54.55 0L45.58 0L45.58-1.84L50.26-8.03L45.78-8.03L45.78-10.57L54.44-10.57L54.44-8.79Z"></path></g></g></svg>